<?xml version="1.0" standalone="no"?>
<!DOCTYPE svg PUBLIC "-//W3C//DTD SVG 20010904//EN"
 "http://www.w3.org/TR/2001/REC-SVG-20010904/DTD/svg10.dtd">
<svg version="1.0" xmlns="http://www.w3.org/2000/svg"
 width="300.000000pt" height="160.000000pt" viewBox="0 0 300.000000 160.000000"
 preserveAspectRatio="xMidYMid meet">
<metadata>
Created by potrace 1.10, written by Peter Selinger 2001-2011
</metadata>
<g transform="translate(0.000000,160.000000) scale(0.100000,-0.100000)"
fill="#000000" stroke="none">
<path d="M863 1403 c-13 -2 -23 -9 -23 -14 0 -6 5 -7 11 -3 7 4 37 10 68 14
54 7 54 7 11 7 -25 0 -55 -2 -67 -4z"/>
<path d="M988 1393 c7 -3 16 -2 19 1 4 3 -2 6 -13 5 -11 0 -14 -3 -6 -6z"/>
<path d="M1063 1355 c35 -27 56 -55 87 -118 23 -46 44 -101 47 -124 5 -36 1
-45 -33 -82 -66 -74 -150 -102 -246 -81 -119 25 -193 91 -222 201 -8 30 -15
45 -15 33 -1 -11 6 -44 15 -74 29 -98 136 -180 236 -180 19 0 39 -5 46 -12 9
-9 15 -9 24 0 7 7 26 12 43 12 16 0 44 8 60 18 30 19 142 121 118 108 -8 -5
-13 -1 -13 9 0 9 5 13 10 10 23 -14 -23 118 -66 191 -26 44 -108 124 -127 124
-5 0 11 -16 36 -35z"/>
<path d="M2098 1383 c12 -2 32 -2 45 0 12 2 2 4 -23 4 -25 0 -35 -2 -22 -4z"/>
<path d="M1985 1366 c-16 -8 -51 -36 -76 -62 -36 -39 -51 -66 -72 -132 -15
-46 -27 -92 -27 -102 0 -41 129 -140 183 -140 13 0 39 -5 56 -11 24 -9 35 -9
44 0 6 6 28 11 49 11 72 0 155 57 193 133 14 28 25 62 24 76 0 25 -1 25 -12
-5 -29 -77 -70 -124 -136 -157 -56 -27 -74 -31 -150 -31 -83 -1 -88 1 -144 37
-32 20 -60 44 -63 52 -4 8 -12 15 -20 15 -11 0 -13 8 -8 28 19 85 60 182 77
182 18 0 47 -21 47 -35 0 -21 -31 -35 -52 -24 -14 8 -18 6 -18 -10 0 -22 29
-36 44 -21 5 5 17 10 26 10 13 0 16 8 13 38 -4 59 -5 60 -30 57 -12 -1 -23 2
-23 7 0 17 50 59 93 78 23 11 35 19 27 19 -8 0 -28 -6 -45 -13z"/>
<path d="M2180 1375 c0 -2 17 -12 38 -22 58 -27 58 -27 47 -15 -12 13 -85 45
-85 37z"/>
<path d="M776 1355 c-11 -8 -18 -17 -15 -19 2 -2 15 4 28 15 27 22 15 26 -13
4z"/>
<path d="M988 1325 c-3 -14 -1 -25 3 -25 5 0 9 11 9 25 0 14 -2 25 -4 25 -2 0
-6 -11 -8 -25z"/>
<path d="M733 1308 c-15 -18 -35 -58 -29 -58 2 0 13 16 25 35 20 35 22 46 4
23z"/>
<path d="M2296 1300 c10 -14 22 -27 26 -30 4 -3 11 -17 17 -30 7 -18 10 -20
10 -7 1 9 -15 34 -36 55 -20 20 -28 26 -17 12z"/>
<path d="M965 1245 c-3 -8 -7 -22 -10 -30 -2 -8 0 -17 4 -20 5 -2 11 11 13 30
4 36 1 46 -7 20z"/>
<path d="M865 1239 c-4 -6 -5 -12 -2 -15 2 -3 7 2 10 11 7 17 1 20 -8 4z"/>
<path d="M1012 1227 c13 -25 -1 -138 -21 -176 -6 -10 -11 -1 -17 30 -4 24 -7
51 -5 59 1 12 0 12 -7 2 -10 -14 -9 -39 2 -119 7 -50 26 -75 26 -35 0 10 4 22
9 27 23 25 50 205 30 205 -6 0 -9 6 -6 13 3 8 -1 14 -8 14 -11 0 -11 -5 -3
-20z"/>
<path d="M900 1220 c0 -5 5 -10 11 -10 5 0 7 5 4 10 -3 6 -8 10 -11 10 -2 0
-4 -4 -4 -10z"/>
<path d="M2011 1223 c0 -6 -4 -20 -7 -30 -5 -14 -4 -15 5 -7 7 7 11 20 8 30
-3 11 -5 14 -6 7z"/>
<path d="M1087 1159 c7 -7 15 -10 18 -7 3 3 -2 9 -12 12 -14 6 -15 5 -6 -5z"/>
<path d="M1947 1163 c-4 -3 -7 -11 -7 -17 0 -6 5 -5 12 2 6 6 9 14 7 17 -3 3
-9 2 -12 -2z"/>
<path d="M2009 1165 c-4 -5 -3 -32 1 -60 4 -27 5 -55 3 -62 -3 -7 0 -13 6 -13
7 0 17 -14 23 -31 13 -39 28 -25 31 28 1 29 5 39 14 36 17 -7 16 7 -2 31 -13
17 -14 15 -20 -18 -4 -21 -13 -36 -21 -36 -8 0 -13 3 -12 8 0 4 -2 14 -5 22
-4 8 -8 35 -9 60 -2 25 -6 41 -9 35z"/>
<path d="M2140 1155 c7 -9 15 -13 17 -11 7 7 -7 26 -19 26 -6 0 -6 -6 2 -15z"/>
<path d="M875 1150 c-3 -5 -1 -10 4 -10 6 0 11 5 11 10 0 6 -2 10 -4 10 -3 0
-8 -4 -11 -10z"/>
<path d="M2083 1136 c2 -23 24 -33 24 -12 0 8 -4 13 -8 10 -4 -2 -10 2 -13 8
-3 7 -5 4 -3 -6z"/>
<path d="M1167 1113 c-4 -3 -7 -20 -7 -36 0 -36 7 -32 20 12 8 29 2 40 -13 24z"/>
<path d="M881 1096 c-8 -10 -9 -16 -1 -21 5 -3 10 0 10 9 0 8 6 17 13 19 7 4
8 6 1 6 -6 1 -17 -5 -23 -13z"/>
<path d="M2230 1100 c20 -13 33 -13 25 0 -3 6 -14 10 -23 10 -15 0 -15 -2 -2
-10z"/>
<path d="M1105 1080 c3 -5 8 -10 11 -10 2 0 4 5 4 10 0 6 -5 10 -11 10 -5 0
-7 -4 -4 -10z"/>
<path d="M1925 1080 c4 -6 11 -8 16 -5 14 9 11 15 -7 15 -8 0 -12 -5 -9 -10z"/>
<path d="M921 1044 c0 -11 3 -14 6 -6 3 7 2 16 -1 19 -3 4 -6 -2 -5 -13z"/>
<path d="M1090 1040 c0 -5 5 -10 11 -10 5 0 7 5 4 10 -3 6 -8 10 -11 10 -2 0
-4 -4 -4 -10z"/>
<path d="M1935 1040 c-3 -5 -1 -10 4 -10 6 0 11 5 11 10 0 6 -2 10 -4 10 -3 0
-8 -4 -11 -10z"/>
<path d="M400 1000 c12 -25 29 -52 37 -62 8 -9 16 -27 17 -41 2 -14 13 -39 26
-56 12 -18 19 -35 16 -38 -10 -10 -56 39 -56 60 0 10 -9 30 -20 44 -11 14 -25
43 -30 65 -10 34 -13 37 -25 24 -8 -8 -15 -23 -15 -32 0 -16 1 -16 15 2 14 18
14 18 15 -8 0 -15 11 -38 25 -52 31 -31 31 -38 3 -34 -14 2 -25 13 -29 28 -4
14 -7 18 -8 8 -1 -25 10 -48 23 -48 20 0 99 -81 88 -92 -5 -5 -21 5 -41 27
-17 20 -31 31 -31 25 0 -19 133 -150 152 -150 13 0 18 -8 18 -29 0 -18 10 -41
26 -58 l26 -28 -20 30 c-16 24 -19 41 -15 78 3 26 8 47 10 47 3 0 19 -10 36
-22 38 -28 59 -40 114 -69 24 -13 44 -32 47 -45 3 -12 9 -29 12 -37 3 -10 -3
-18 -18 -22 -13 -4 -30 -14 -40 -22 -14 -13 -21 -11 -60 12 l-43 26 33 -30
c36 -35 57 -38 90 -15 20 14 25 13 57 -2 21 -10 35 -23 34 -33 -1 -9 -1 -21 0
-27 1 -10 49 -28 101 -38 14 -2 50 -12 80 -21 30 -9 78 -18 105 -20 28 -2 50
-4 50 -5 0 -1 25 -3 55 -5 30 -2 55 -4 55 -5 0 -1 14 -4 31 -6 21 -3 37 1 48
11 9 9 16 12 16 7 0 -18 54 -21 74 -4 14 14 17 26 13 63 -4 30 -1 53 7 64 11
15 13 14 24 -9 8 -18 8 -34 1 -55 -19 -55 38 -105 79 -68 15 13 19 13 31 0 9
-10 23 -13 45 -9 48 10 148 17 209 15 73 -1 228 41 268 73 l24 19 -23 -11
c-77 -38 -202 -65 -286 -62 -24 1 -53 27 -59 55 -3 12 -15 49 -26 81 -12 33
-19 61 -17 63 2 2 28 1 59 -3 64 -8 61 5 31 -118 -8 -32 -12 -61 -9 -64 4 -4
10 10 30 66 4 10 13 5 32 -16 l26 -31 28 37 c16 20 29 45 29 56 0 13 5 16 16
12 14 -5 15 -4 5 8 -6 7 -9 21 -5 30 3 9 2 16 -3 16 -5 0 -15 -21 -22 -47 -14
-47 -36 -83 -52 -83 -14 0 -39 57 -39 89 0 24 5 32 23 36 125 29 160 35 180
30 13 -4 46 3 75 14 28 11 54 16 57 11 6 -10 58 6 95 29 14 9 36 22 50 29 32
17 84 62 78 68 -3 2 -22 -9 -44 -24 -73 -53 -156 -92 -180 -86 -13 3 -40 0
-61 -8 -21 -7 -58 -13 -83 -14 -25 0 -77 -8 -117 -17 -58 -13 -83 -14 -128 -6
-32 6 -59 8 -61 6 -3 -3 -28 4 -55 14 -28 11 -54 17 -59 14 -4 -3 -25 2 -45
11 -53 22 -147 26 -198 8 -58 -21 -95 -24 -312 -28 -166 -3 -195 -2 -236 14
-26 11 -55 17 -66 14 -20 -6 -118 45 -167 87 -78 66 -176 174 -176 194 0 12
-9 34 -20 48 -11 14 -20 29 -20 34 0 5 -12 20 -26 34 l-26 24 22 -45z m160
-239 c28 -30 35 -43 28 -60 -11 -30 -29 -26 -66 12 -29 30 -31 37 -23 60 6 15
14 27 18 27 4 0 23 -17 43 -39z m942 -190 c-6 -109 -55 -169 -102 -126 -21 19
-35 82 -26 122 5 22 16 31 54 45 72 25 78 22 74 -41z m88 40 l55 -19 3 -60 c2
-52 0 -63 -19 -81 -30 -28 -55 -26 -74 3 -24 37 -41 176 -22 176 2 0 27 -9 57
-19z m-727 -18 c19 -9 57 -17 92 -17 l60 -1 3 -40 c2 -22 9 -43 15 -47 8 -5 4
-15 -12 -32 -13 -14 -20 -30 -16 -37 6 -8 12 -3 22 15 14 26 15 27 28 9 8 -10
15 -23 15 -30 0 -6 6 -13 13 -16 6 -2 9 -8 5 -12 -5 -5 -27 -2 -50 5 -24 7
-54 14 -68 16 -56 9 -85 21 -85 35 0 9 12 15 33 16 22 1 32 -3 32 -13 0 -8 7
-14 17 -14 14 0 14 2 -2 20 -10 11 -24 41 -32 67 l-13 48 4 -42 c4 -41 3 -43
-23 -43 -19 0 -34 9 -49 30 -27 36 -44 79 -36 91 7 12 10 12 47 -8z m387 -20
c13 -12 -7 -101 -29 -128 -10 -14 -21 -21 -25 -17 -4 3 -4 -2 0 -11 7 -19 8
-19 42 26 l21 28 14 -28 c8 -15 17 -43 20 -61 l7 -33 -45 3 c-36 2 -45 7 -45
21 0 10 -4 16 -9 12 -6 -3 -15 4 -21 15 -15 28 -38 168 -29 177 10 10 89 7 99
-4z m104 -31 c-12 -87 -52 -120 -73 -61 -11 32 -15 92 -6 100 2 3 23 5 45 6
l41 2 -7 -47z m380 28 c30 0 33 -19 15 -82 -18 -68 -66 -35 -76 52 -6 51 -5
52 15 41 11 -6 32 -11 46 -11z m-601 -38 c4 -38 -12 -94 -32 -106 -22 -14 -72
102 -58 137 3 8 18 11 45 9 38 -4 40 -6 45 -40z m671 -115 c14 -26 26 -52 26
-57 0 -6 -21 -10 -46 -10 l-46 0 7 36 c6 34 26 87 30 82 1 -2 14 -25 29 -51z
m-421 2 c25 -62 7 -88 -50 -73 -19 5 -22 11 -17 33 9 36 33 81 43 81 4 0 15
-19 24 -41z m333 -26 c8 -40 7 -41 -33 -49 -26 -5 -32 -3 -38 16 -4 14 0 37
11 61 16 37 18 38 35 23 10 -9 21 -32 25 -51z m-544 8 c19 -34 15 -41 -21 -41
-43 0 -57 14 -43 44 15 34 43 33 64 -3z m312 -2 c8 -40 1 -49 -33 -49 -37 0
-41 6 -29 40 8 25 19 33 49 39 4 0 9 -13 13 -30z m125 -6 c15 -32 3 -46 -35
-41 -24 2 -29 7 -26 28 1 14 4 30 7 37 6 19 42 3 54 -24z"/>
<path d="M525 735 c16 -13 31 -22 34 -20 5 6 -41 44 -54 44 -5 0 3 -11 20 -24z"/>
<path d="M1410 581 c0 -6 4 -13 10 -16 6 -3 7 1 4 9 -7 18 -14 21 -14 7z"/>
<path d="M1416 525 c-3 -8 -1 -15 4 -15 6 0 10 7 10 15 0 8 -2 15 -4 15 -2 0
-6 -7 -10 -15z"/>
<path d="M1425 491 c-3 -5 -1 -12 5 -16 5 -3 10 1 10 9 0 18 -6 21 -15 7z"/>
<path d="M1575 590 c-3 -5 1 -10 10 -10 9 0 13 5 10 10 -3 6 -8 10 -10 10 -2
0 -7 -4 -10 -10z"/>
<path d="M2150 1010 c0 -5 5 -10 11 -10 5 0 7 5 4 10 -3 6 -8 10 -11 10 -2 0
-4 -4 -4 -10z"/>
<path d="M1985 990 c3 -5 8 -10 11 -10 2 0 4 5 4 10 0 6 -5 10 -11 10 -5 0 -7
-4 -4 -10z"/>
<path d="M2632 968 c-11 -18 -24 -46 -28 -63 -8 -33 -52 -105 -65 -105 -12 0
-69 -51 -69 -61 0 -6 22 9 50 32 49 41 90 97 90 123 0 7 11 34 25 60 28 53 26
62 -3 14z"/>
<path d="M2571 733 c0 -15 4 -37 9 -48 7 -16 9 -11 9 22 1 23 -3 45 -9 48 -6
4 -10 -6 -9 -22z"/>
<path d="M2468 653 c4 -23 6 -24 17 -9 8 10 19 14 31 10 13 -5 16 -4 9 3 -5 6
-22 13 -36 17 -24 5 -26 3 -21 -21z"/>
<path d="M690 615 c0 -15 -5 -25 -12 -24 -32 4 -39 -1 -29 -20 6 -10 9 -20 8
-22 -1 -2 4 2 10 10 14 16 15 16 30 -19 10 -22 12 -19 12 32 1 31 -3 60 -9 63
-6 4 -10 -5 -10 -20z"/>
<path d="M2356 608 c-10 -32 -2 -43 31 -43 31 0 48 14 21 16 -7 1 -20 2 -28 3
-8 0 -14 9 -14 19 2 20 -5 23 -10 5z"/>
<path d="M2480 576 c-14 -8 -28 -12 -32 -10 -5 3 -8 0 -8 -5 0 -6 2 -11 5 -11
10 0 65 30 65 35 0 7 -1 6 -30 -9z"/>
<path d="M2231 559 c-5 -13 -22 -39 -37 -57 -26 -29 -32 -31 -60 -23 -27 8
-32 6 -47 -20 -9 -16 -12 -29 -6 -29 5 0 12 6 15 14 5 14 50 16 71 3 8 -5 11
-3 8 5 -2 7 9 23 25 36 23 18 33 20 55 12 17 -7 24 -7 20 0 -3 6 -12 10 -20
10 -21 0 -27 17 -15 41 7 11 9 23 6 26 -3 3 -10 -5 -15 -18z"/>
<path d="M2375 530 c-3 -6 1 -7 9 -4 18 7 21 14 7 14 -6 0 -13 -4 -16 -10z"/>
<path d="M2110 514 c0 -8 5 -12 10 -9 6 4 8 11 5 16 -9 14 -15 11 -15 -7z"/>
<path d="M2320 505 c-16 -19 -1 -19 24 0 16 12 17 15 4 15 -8 0 -21 -7 -28
-15z"/>
<path d="M800 445 c14 -8 30 -14 35 -14 6 0 -1 6 -15 14 -14 8 -29 14 -35 14
-5 0 1 -6 15 -14z"/>
<path d="M2010 456 c0 -2 6 -16 14 -30 12 -23 15 -24 26 -11 7 9 11 16 9 18
-34 19 -49 26 -49 23z"/>
</g>
</svg>
