<?xml version="1.0" standalone="no"?>
<!DOCTYPE svg PUBLIC "-//W3C//DTD SVG 20010904//EN"
 "http://www.w3.org/TR/2001/REC-SVG-20010904/DTD/svg10.dtd">
<svg version="1.0" xmlns="http://www.w3.org/2000/svg"
 width="300.000000pt" height="191.000000pt" viewBox="0 0 300.000000 191.000000"
 preserveAspectRatio="xMidYMid meet">
<metadata>
Created by potrace 1.10, written by Peter Selinger 2001-2011
</metadata>
<g transform="translate(0.000000,191.000000) scale(0.100000,-0.100000)"
fill="#000000" stroke="none">
<path d="M1348 1903 c7 -3 16 -2 19 1 4 3 -2 6 -13 5 -11 0 -14 -3 -6 -6z"/>
<path d="M1571 1879 c-21 -28 -21 -30 -3 -20 15 8 22 8 26 -2 3 -6 3 -2 0 11
-3 12 -1 22 5 22 6 0 11 5 11 10 0 19 -16 10 -39 -21z"/>
<path d="M1637 1893 c3 -10 15 -25 26 -34 21 -17 16 -39 -9 -39 -8 0 -14 -4
-14 -10 0 -14 33 1 48 21 7 10 19 16 26 13 7 -3 16 2 19 10 5 12 -1 15 -31 13
-30 -2 -39 2 -47 21 -11 26 -27 30 -18 5z"/>
<path d="M1783 1896 c3 -7 0 -19 -6 -25 -8 -8 -8 -11 0 -11 11 0 23 22 23 41
0 5 -5 9 -11 9 -6 0 -9 -6 -6 -14z"/>
<path d="M2033 1897 c2 -7 15 -10 28 -9 39 6 42 18 4 19 -23 1 -35 -3 -32 -10z"/>
<path d="M2157 1903 c-2 -5 -5 -28 -6 -53 -1 -25 -7 -49 -12 -55 -6 -5 -35
-10 -65 -9 -64 0 -73 -11 -11 -15 53 -2 97 13 97 34 0 8 4 15 10 15 6 0 6 9 1
23 -6 14 -6 30 0 38 11 18 11 29 0 29 -6 0 -12 -3 -14 -7z"/>
<path d="M2217 1904 c-11 -11 23 -44 45 -44 10 0 18 5 18 10 0 6 -9 10 -20 10
-10 0 -23 7 -28 15 -4 9 -11 12 -15 9z"/>
<path d="M2276 1900 c5 -5 30 -14 54 -19 25 -5 62 -14 82 -19 21 -6 36 -6 33
-2 -3 5 5 10 17 12 13 2 23 11 24 21 1 12 1 13 -3 2 -5 -16 -78 -22 -87 -6 -3
4 -23 6 -45 4 -22 -2 -42 1 -46 7 -3 5 -14 10 -23 10 -10 0 -13 -3 -6 -10z"/>
<path d="M2654 1879 c-24 -48 -22 -133 5 -169 11 -16 21 -33 21 -38 0 -5 18
-30 41 -55 36 -42 40 -51 37 -93 -2 -35 1 -48 12 -52 13 -4 13 -3 2 11 -10 12
-11 21 -3 36 18 32 13 58 -17 93 -71 83 -92 126 -92 189 0 34 4 59 10 59 6 0
10 8 8 17 -2 13 6 19 32 24 l35 6 -37 2 c-32 1 -40 -3 -54 -30z"/>
<path d="M1718 1893 c7 -3 16 -2 19 1 4 3 -2 6 -13 5 -11 0 -14 -3 -6 -6z"/>
<path d="M1416 1875 c-3 -8 -1 -15 4 -15 6 0 10 7 10 15 0 8 -2 15 -4 15 -2 0
-6 -7 -10 -15z"/>
<path d="M1126 1872 c-3 -6 -1 -12 6 -14 10 -4 9 -9 -3 -21 -9 -9 -18 -15 -20
-13 -2 2 -17 -12 -32 -31 -40 -46 -20 -42 28 7 22 21 47 39 56 40 8 0 24 7 35
15 17 13 16 14 -13 5 -26 -7 -35 -5 -42 7 -5 10 -11 12 -15 5z"/>
<path d="M1325 1860 c3 -5 8 -10 11 -10 2 0 4 5 4 10 0 6 -5 10 -11 10 -5 0
-7 -4 -4 -10z"/>
<path d="M1020 1856 c0 -2 11 -6 25 -8 13 -3 22 -1 19 3 -5 9 -44 13 -44 5z"/>
<path d="M1458 1853 c6 -2 18 -2 25 0 6 3 1 5 -13 5 -14 0 -19 -2 -12 -5z"/>
<path d="M2920 1850 c0 -5 5 -10 11 -10 5 0 7 5 4 10 -3 6 -8 10 -11 10 -2 0
-4 -4 -4 -10z"/>
<path d="M1242 1820 c0 -14 2 -19 5 -12 2 6 2 18 0 25 -3 6 -5 1 -5 -13z"/>
<path d="M1442 1820 c0 -14 2 -19 5 -12 2 6 2 18 0 25 -3 6 -5 1 -5 -13z"/>
<path d="M1001 1814 c0 -11 3 -14 6 -6 3 7 2 16 -1 19 -3 4 -6 -2 -5 -13z"/>
<path d="M1860 1794 c-25 -14 -47 -30 -49 -35 -2 -6 14 0 35 14 22 13 45 22
52 20 6 -3 12 2 12 11 0 9 -1 16 -2 15 -2 0 -23 -12 -48 -25z"/>
<path d="M1342 1790 c0 -14 2 -19 5 -12 2 6 2 18 0 25 -3 6 -5 1 -5 -13z"/>
<path d="M1920 1799 c0 -5 5 -7 10 -4 6 3 10 8 10 11 0 2 -4 4 -10 4 -5 0 -10
-5 -10 -11z"/>
<path d="M2262 1778 c-7 -7 -12 -18 -12 -26 0 -7 -4 -11 -8 -8 -16 10 -92 -77
-79 -90 3 -3 8 4 12 15 3 12 12 21 19 21 7 0 19 12 26 28 12 26 13 26 24 8 6
-11 25 -33 41 -48 25 -24 27 -30 15 -38 -12 -7 -12 -12 -2 -22 9 -9 12 -9 12
5 0 21 13 22 30 2 7 -8 18 -15 24 -15 6 0 3 7 -6 14 -10 7 -18 18 -18 24 0 6
-5 12 -12 14 -7 3 -5 7 6 11 11 4 15 3 10 -4 -4 -7 4 -9 22 -7 22 2 30 10 37
37 5 22 5 37 -2 44 -8 8 -11 7 -11 -3 0 -9 -6 -6 -16 8 -21 31 -58 26 -61 -8
l-3 -25 12 23 c17 34 43 24 44 -18 1 -31 -2 -35 -23 -34 -31 1 -83 40 -83 63
0 12 12 22 33 29 29 9 30 10 7 11 -15 1 -31 -4 -38 -11z"/>
<path d="M2136 1755 c-14 -13 -26 -27 -26 -31 0 -4 14 5 30 21 17 16 30 30 30
32 0 7 -9 2 -34 -22z"/>
<path d="M1857 1755 c-9 -8 -20 -15 -26 -15 -6 0 -11 -3 -11 -7 0 -5 -14 -22
-30 -40 -16 -17 -26 -34 -21 -37 4 -3 13 6 19 19 7 14 15 25 19 25 5 0 20 11
34 23 13 13 31 26 39 29 10 3 11 6 3 11 -6 4 -18 0 -26 -8z"/>
<path d="M1970 1759 c0 -5 14 -9 30 -9 17 0 39 -9 50 -20 22 -22 27 -14 7 11
-13 18 -87 33 -87 18z"/>
<path d="M2730 1755 c0 -8 4 -15 10 -15 5 0 7 7 4 15 -4 8 -8 15 -10 15 -2 0
-4 -7 -4 -15z"/>
<path d="M2460 1734 l45 -25 1 -68 c1 -66 2 -69 42 -109 23 -23 42 -46 42 -52
0 -5 10 -14 22 -21 21 -11 21 -11 -2 27 -12 22 -36 50 -52 64 -32 28 -36 41
-37 112 -1 43 -4 50 -38 73 -21 14 -44 25 -53 25 -8 0 5 -12 30 -26z"/>
<path d="M1030 1740 c-9 -6 -10 -10 -3 -10 6 0 15 5 18 10 8 12 4 12 -15 0z"/>
<path d="M1267 1743 c-3 -5 0 -19 8 -29 15 -20 18 -11 6 20 -4 11 -10 15 -14
9z"/>
<path d="M1340 1714 c1 -14 29 -48 35 -42 3 2 -4 15 -15 28 -11 13 -20 19 -20
14z"/>
<path d="M2985 1680 c-3 -5 -1 -10 4 -10 6 0 11 5 11 10 0 6 -2 10 -4 10 -3 0
-8 -4 -11 -10z"/>
<path d="M1300 1676 c0 -2 8 -10 18 -17 15 -13 16 -12 3 4 -13 16 -21 21 -21
13z"/>
<path d="M2072 1655 c0 -16 2 -22 5 -12 2 9 2 23 0 30 -3 6 -5 -1 -5 -18z"/>
<path d="M486 1640 c11 -14 32 -40 47 -58 15 -19 27 -28 27 -22 0 6 -21 33
-47 59 -27 26 -39 35 -27 21z"/>
<path d="M2858 1653 c7 -3 16 -2 19 1 4 3 -2 6 -13 5 -11 0 -14 -3 -6 -6z"/>
<path d="M1000 1609 c0 -16 4 -28 9 -25 8 5 3 56 -5 56 -2 0 -4 -14 -4 -31z"/>
<path d="M1236 1633 c-11 -3 -26 -12 -34 -20 -8 -8 -23 -12 -34 -10 -11 3 -17
0 -16 -6 1 -7 -12 -27 -30 -45 -26 -26 -32 -29 -33 -15 0 16 -1 16 -7 2 -8
-20 -42 -16 -54 5 -14 24 -31 20 -18 -4 6 -11 8 -26 4 -33 -4 -6 -4 -9 1 -5 4
4 15 2 23 -5 13 -10 14 -9 8 1 -6 11 -1 13 20 11 35 -4 55 7 79 43 9 15 21 26
25 23 4 -3 10 2 14 10 3 8 11 15 18 15 7 0 27 9 43 20 30 20 28 22 -9 13z"/>
<path d="M1745 1620 c-10 -11 -20 -18 -24 -16 -3 2 -13 -3 -21 -12 -13 -14
-12 -15 4 -9 10 4 24 7 31 7 14 0 40 38 32 46 -2 2 -12 -5 -22 -16z"/>
<path d="M2036 1618 c-9 -12 -16 -33 -16 -47 0 -28 12 -21 17 11 2 12 8 28 15
35 6 7 8 16 5 19 -3 3 -12 -5 -21 -18z"/>
<path d="M2155 1630 c-3 -5 -1 -10 4 -10 6 0 11 5 11 10 0 6 -2 10 -4 10 -3 0
-8 -4 -11 -10z"/>
<path d="M1302 1600 c0 -14 2 -19 5 -12 2 6 2 18 0 25 -3 6 -5 1 -5 -13z"/>
<path d="M2182 1592 c-1 -24 0 -25 9 -9 7 11 7 23 2 28 -5 5 -9 -3 -11 -19z"/>
<path d="M1209 1576 c-58 -43 -90 -83 -82 -103 5 -13 7 -12 16 3 14 25 109
114 116 109 4 -2 6 -25 5 -52 0 -26 4 -51 9 -55 6 -4 4 -13 -6 -23 -15 -15
-15 -35 -1 -35 3 0 3 4 -1 9 -3 5 -1 12 5 16 5 3 10 0 10 -7 0 -11 2 -11 9 0
4 7 4 35 0 61 -4 26 -7 54 -7 62 3 59 -9 62 -73 15z"/>
<path d="M1636 1602 c-3 -5 1 -9 9 -9 8 0 15 4 15 9 0 4 -4 8 -9 8 -6 0 -12
-4 -15 -8z"/>
<path d="M36 1583 c-6 -14 -5 -15 5 -6 7 7 10 15 7 18 -3 3 -9 -2 -12 -12z"/>
<path d="M1520 1586 c0 -2 9 -6 20 -9 11 -3 18 -1 14 4 -5 9 -34 13 -34 5z"/>
<path d="M2886 1563 c-6 -14 -5 -15 5 -6 7 7 10 15 7 18 -3 3 -9 -2 -12 -12z"/>
<path d="M1525 1550 l-30 -8 33 -1 c17 0 32 4 32 9 0 6 -1 9 -2 9 -2 -1 -16
-5 -33 -9z"/>
<path d="M2144 1544 c-18 -14 -18 -15 4 -4 12 6 22 13 22 15 0 8 -5 6 -26 -11z"/>
<path d="M975 1523 c-3 -9 1 -23 8 -31 12 -12 15 -10 19 12 6 28 -17 44 -27
19z"/>
<path d="M1310 1501 c0 -16 6 -36 14 -43 33 -31 55 -46 60 -41 3 4 6 2 6 -4 0
-11 26 -11 52 1 10 5 15 13 11 19 -4 6 -1 7 6 3 7 -5 10 -15 6 -25 -4 -10 -3
-13 4 -6 5 6 13 23 17 39 6 27 6 28 -17 16 -13 -7 -31 -18 -39 -24 -8 -7 -19
-12 -25 -11 -20 1 -73 48 -69 60 3 7 0 16 -5 20 -6 3 -9 11 -6 16 4 5 1 9 -4
9 -6 0 -11 -13 -11 -29z"/>
<path d="M1900 1518 c0 -11 14 -15 73 -22 68 -8 58 8 -13 20 -33 6 -60 6 -60
2z"/>
<path d="M2873 1523 c-7 -2 -13 -11 -13 -19 0 -8 -6 -14 -14 -14 -8 0 -17 -4
-20 -9 -14 -21 34 3 49 25 8 13 14 24 13 23 -2 0 -9 -3 -15 -6z"/>
<path d="M2285 1510 c3 -6 0 -8 -7 -5 -27 11 -47 -99 -23 -124 10 -10 60 24
63 43 3 15 1 15 -18 -4 -18 -18 -24 -20 -31 -9 -27 42 5 83 59 77 30 -3 42
-38 22 -63 -7 -8 -7 -15 -1 -19 6 -4 13 9 17 29 3 19 10 33 14 30 5 -3 7 -14
5 -25 -4 -22 10 -28 18 -7 7 18 -10 54 -30 65 -27 14 -95 23 -88 12z"/>
<path d="M488 1494 c6 -12 23 -32 39 -45 15 -13 54 -51 86 -84 l59 -60 -37 55
c-37 55 -75 97 -75 83 0 -4 -19 11 -41 32 -25 24 -37 31 -31 19z"/>
<path d="M950 1496 c0 -8 5 -18 10 -21 6 -3 10 1 10 9 0 8 -4 18 -10 21 -5 3
-10 -1 -10 -9z"/>
<path d="M2099 1478 c-3 -20 -2 -35 2 -32 10 6 19 -22 19 -57 0 -17 4 -28 9
-24 10 6 7 35 -8 75 -6 14 -12 36 -13 50 -3 20 -5 17 -9 -12z"/>
<path d="M760 1489 c-37 -7 -36 -8 20 -15 19 -2 52 -11 73 -19 47 -19 51 -19
43 0 -3 8 -1 15 5 15 6 0 7 5 3 11 -4 8 -9 7 -15 -2 -7 -12 -15 -12 -51 1 -26
9 -57 13 -78 9z"/>
<path d="M2796 1484 c-10 -25 1 -29 14 -5 6 12 7 21 1 21 -5 0 -12 -7 -15 -16z"/>
<path d="M1080 1474 c0 -13 -3 -14 -14 -5 -12 10 -13 8 -9 -9 8 -32 18 -32 30
1 6 16 7 29 2 29 -5 0 -9 -7 -9 -16z"/>
<path d="M920 1470 c0 -5 7 -10 15 -10 8 0 15 5 15 10 0 6 -7 10 -15 10 -8 0
-15 -4 -15 -10z"/>
<path d="M1006 1461 c-4 -5 -3 -11 1 -13 5 -1 16 -19 25 -38 l18 -35 -5 39
c-3 21 -8 42 -11 47 -7 12 -21 11 -28 0z"/>
<path d="M1233 1455 c0 -8 4 -12 9 -9 5 3 6 10 3 15 -9 13 -12 11 -12 -6z"/>
<path d="M725 1451 c-9 -16 2 -46 27 -67 21 -19 21 -18 -1 14 -19 28 -20 33
-7 38 9 3 28 -2 43 -11 24 -16 25 -19 9 -30 -11 -8 -13 -15 -7 -20 18 -11 30
4 25 31 -4 23 -3 24 16 14 15 -8 19 -17 15 -31 -6 -18 -5 -19 13 -8 12 7 20
18 19 23 -3 15 -38 32 -81 40 -21 4 -43 9 -51 12 -7 3 -16 1 -20 -5z"/>
<path d="M953 1445 c-13 -6 -20 -15 -16 -18 3 -4 12 -2 19 4 8 7 14 7 19 -1 3
-5 3 -10 -1 -10 -5 0 9 -18 30 -39 21 -22 36 -43 33 -48 -3 -4 1 -19 9 -33 14
-25 14 -24 8 10 -5 33 -36 95 -66 131 -11 13 -17 14 -35 4z"/>
<path d="M1108 1430 c-6 -40 1 -100 11 -100 4 0 6 26 4 58 -6 76 -9 84 -15 42z"/>
<path d="M1156 1444 c-17 -17 -21 -34 -8 -34 5 0 14 11 20 25 13 29 10 31 -12
9z"/>
<path d="M1500 1438 c-12 -22 -12 -22 6 -6 10 10 15 20 12 24 -4 3 -12 -5 -18
-18z"/>
<path d="M1532 1434 c2 -23 4 -24 15 -8 17 23 16 34 -2 34 -10 0 -14 -9 -13
-26z"/>
<path d="M1600 1435 c-17 -18 -20 -25 -8 -25 8 0 25 11 38 25 17 18 20 25 8
25 -8 0 -25 -11 -38 -25z"/>
<path d="M2038 1443 c-2 -33 -3 -38 -11 -50 -4 -6 -3 -14 3 -18 9 -6 15 16 11
39 -1 4 3 14 9 21 8 9 8 15 0 20 -5 3 -11 -2 -12 -12z"/>
<path d="M1710 1435 c-11 -13 -15 -13 -21 -3 -7 10 -9 10 -9 -2 0 -13 -1 -13
-11 0 -8 12 -10 12 -7 1 2 -8 11 -16 19 -17 39 -9 52 -8 56 4 3 8 -1 10 -14 5
-16 -6 -16 -5 -4 10 7 9 11 17 8 17 -2 0 -10 -7 -17 -15z"/>
<path d="M2612 1420 c0 -14 2 -19 5 -12 2 6 2 18 0 25 -3 6 -5 1 -5 -13z"/>
<path d="M478 1425 c-8 -14 5 -39 21 -43 11 -2 12 0 4 10 -6 7 -12 20 -15 28
-2 7 -7 10 -10 5z"/>
<path d="M1300 1415 c0 -8 6 -15 14 -15 22 0 28 17 10 24 -22 9 -24 8 -24 -9z"/>
<path d="M910 1405 c10 -12 9 -16 -3 -21 -13 -5 -9 -13 19 -41 43 -43 53 -38
20 10 -14 20 -21 39 -17 42 14 8 61 -42 61 -65 0 -12 5 -18 10 -15 6 3 10 1
10 -6 0 -7 3 -10 6 -6 10 9 -34 75 -66 97 -34 24 -59 28 -40 5z"/>
<path d="M1282 1400 c0 -14 2 -19 5 -12 2 6 2 18 0 25 -3 6 -5 1 -5 -13z"/>
<path d="M1749 1404 c-7 -8 -1 -11 20 -10 42 2 60 22 20 21 -17 0 -35 -5 -40
-11z"/>
<path d="M1169 1410 c0 -3 -2 -13 -4 -22 -2 -10 0 -20 5 -23 12 -8 22 27 10
39 -5 5 -10 8 -11 6z"/>
<path d="M1845 1400 c-3 -5 -1 -10 4 -10 6 0 11 5 11 10 0 6 -2 10 -4 10 -3 0
-8 -4 -11 -10z"/>
<path d="M1916 1383 c-4 -16 -9 -36 -12 -46 -5 -15 -1 -17 20 -11 16 4 26 2
26 -5 0 -6 -10 -12 -22 -12 -18 -1 -19 -2 -5 -6 9 -2 15 -9 12 -14 -3 -5 2 -6
11 -2 11 4 15 2 11 -4 -8 -13 37 -23 54 -12 9 5 6 11 -12 19 -30 14 -63 70
-56 96 4 17 6 17 12 -3 4 -13 11 -20 16 -17 14 9 -10 44 -30 44 -12 0 -21 -10
-25 -27z"/>
<path d="M2548 1403 c-9 -2 -20 -13 -23 -24 -4 -10 -13 -20 -21 -20 -8 -1 -20
-2 -26 -3 -7 -1 -13 5 -13 13 0 20 -29 35 -51 27 -18 -8 -18 -8 3 -16 27 -11
40 -49 22 -61 -11 -7 -10 -9 4 -9 9 0 17 4 17 10 0 5 16 16 35 25 20 8 42 21
50 29 8 8 24 12 35 9 24 -6 27 12 4 21 -9 3 -16 5 -17 5 -1 -1 -10 -3 -19 -6z"/>
<path d="M1205 1390 c-3 -5 1 -10 9 -10 9 0 16 5 16 10 0 6 -4 10 -9 10 -6 0
-13 -4 -16 -10z"/>
<path d="M1336 1375 c-3 -8 0 -15 6 -15 6 0 8 -3 5 -6 -4 -4 4 -16 16 -28 13
-12 29 -40 37 -63 7 -24 17 -43 22 -43 5 0 6 5 3 10 -3 6 -1 10 4 10 7 0 8 6
2 18 -5 9 -16 34 -25 55 -8 20 -20 37 -26 37 -5 0 -10 9 -10 20 0 23 -25 27
-34 5z"/>
<path d="M1437 1383 c-4 -3 -7 -11 -7 -17 0 -6 5 -5 12 2 6 6 9 14 7 17 -3 3
-9 2 -12 -2z"/>
<path d="M1483 1383 c-9 -3 -10 -10 -3 -22 9 -19 4 -31 -13 -31 -5 0 -6 7 -3
16 5 14 4 15 -9 4 -17 -14 -21 -35 -4 -24 8 4 9 0 4 -15 -4 -12 -2 -21 4 -21
6 0 8 -6 5 -14 -3 -7 2 -16 10 -19 9 -4 16 -2 16 3 0 6 6 9 13 8 7 -2 12 6 11
18 0 16 4 21 15 17 13 -4 14 -3 2 5 -20 14 -41 4 -33 -16 5 -14 4 -15 -9 -2
-14 13 -12 17 14 42 25 22 27 26 9 22 -17 -5 -20 -2 -15 15 6 22 5 22 -14 14z"/>
<path d="M1560 1381 c0 -5 7 -12 17 -15 14 -6 14 -8 -3 -21 -18 -13 -18 -14 4
-8 23 6 29 18 12 28 -6 4 -8 11 -5 16 4 5 -1 9 -9 9 -9 0 -16 -4 -16 -9z"/>
<path d="M1624 1375 c-10 -7 0 -10 38 -11 29 0 45 1 36 4 -10 2 -18 7 -18 12
0 12 -39 8 -56 -5z"/>
<path d="M477 1363 c-13 -12 -7 -23 11 -22 10 0 12 3 4 6 -6 2 -10 9 -6 14 6
10 0 12 -9 2z"/>
<path d="M1830 1360 c-11 -7 -7 -10 18 -10 20 0 31 4 27 10 -8 13 -26 13 -45
0z"/>
<path d="M2401 1348 c-1 -26 -30 -46 -49 -35 -4 3 -18 -1 -32 -9 -16 -8 -19
-13 -9 -14 8 0 20 5 26 11 8 8 13 8 17 0 22 -35 71 13 55 54 -7 18 -8 17 -8
-7z"/>
<path d="M825 1351 c3 -5 -6 -22 -19 -38 l-24 -28 -15 35 c-12 28 -16 31 -16
13 -1 -12 5 -28 13 -35 10 -10 11 -20 4 -34 -9 -18 -9 -18 6 0 15 19 46 16 46
-4 0 -6 -4 -8 -10 -5 -13 8 -60 -43 -60 -66 0 -11 5 -19 10 -19 6 0 9 6 8 13
-2 6 3 11 11 9 12 -3 12 0 2 12 -11 13 -9 17 15 27 16 7 36 11 44 10 10 -2 8
5 -8 22 -21 22 -22 57 -2 57 4 0 10 9 13 20 3 13 0 20 -10 20 -8 0 -12 -4 -8
-9z"/>
<path d="M2032 1340 c0 -14 2 -19 5 -12 2 6 2 18 0 25 -3 6 -5 1 -5 -13z"/>
<path d="M795 1339 c-4 -6 -5 -12 -2 -15 2 -3 7 2 10 11 7 17 1 20 -8 4z"/>
<path d="M1291 1334 c0 -11 3 -14 6 -6 3 7 2 16 -1 19 -3 4 -6 -2 -5 -13z"/>
<path d="M2142 1334 c10 -10 20 -16 22 -13 3 3 -5 11 -17 18 -21 13 -21 12 -5
-5z"/>
<path d="M1605 1325 c-21 -9 -24 -14 -12 -14 10 -1 15 -5 12 -11 -13 -21 19
-9 41 15 19 21 20 25 6 25 -9 -1 -30 -7 -47 -15z"/>
<path d="M525 1320 c11 -5 27 -9 35 -9 9 0 8 4 -5 9 -11 5 -27 9 -35 9 -9 0
-8 -4 5 -9z"/>
<path d="M1160 1320 c0 -5 5 -10 10 -10 6 0 10 5 10 10 0 6 -4 10 -10 10 -5 0
-10 -4 -10 -10z"/>
<path d="M1716 1320 c12 -12 134 -22 134 -11 0 14 -28 21 -88 21 -36 0 -53 -3
-46 -10z"/>
<path d="M2216 1322 c-3 -5 1 -9 9 -9 8 0 15 4 15 9 0 4 -4 8 -9 8 -6 0 -12
-4 -15 -8z"/>
<path d="M885 1309 c-4 -6 -5 -13 -2 -16 7 -7 27 6 27 18 0 12 -17 12 -25 -2z"/>
<path d="M1637 1295 c-34 -31 -29 -32 18 -4 24 15 33 17 30 7 -4 -10 2 -13 22
-12 47 3 49 5 13 19 -48 18 -51 18 -83 -10z"/>
<path d="M1275 1300 c-3 -5 -19 -7 -35 -3 -50 9 -78 -3 -86 -39 -6 -29 -8 -30
-15 -13 -6 15 -8 16 -8 4 -1 -9 9 -24 22 -32 l22 -16 -22 -7 c-14 -4 -22 -13
-20 -24 1 -11 -2 -18 -8 -17 -5 1 -9 8 -7 17 2 10 0 11 -5 3 -6 -8 -16 -8 -38
2 -16 7 -24 14 -17 14 17 1 15 21 -3 21 -7 0 -18 7 -23 17 -9 14 -15 15 -56 3
-26 -7 -44 -15 -41 -18 11 -11 -17 -30 -37 -24 -14 3 -19 1 -14 -6 4 -7 14
-12 22 -12 8 0 26 -8 41 -17 26 -17 26 -17 12 5 -10 17 -11 26 -3 40 23 36 91
20 81 -20 -4 -13 0 -18 13 -18 24 0 70 -21 70 -32 0 -19 19 -6 30 22 19 45 43
58 97 52 32 -3 44 -2 39 6 -4 6 -13 9 -22 5 -12 -4 -14 0 -8 23 4 16 14 39 22
52 8 12 12 22 9 22 -3 0 -9 -4 -12 -10z m-35 -25 c6 -8 10 -22 8 -31 -4 -22
-28 -31 -28 -10 0 9 -5 16 -11 16 -5 0 -8 4 -4 9 3 5 1 12 -4 15 -14 9 -23
-25 -10 -41 17 -20 1 -30 -18 -10 -14 13 -14 21 -5 42 13 28 52 34 72 10z"/>
<path d="M1546 1294 c-17 -12 -17 -14 -4 -14 9 0 20 5 23 11 11 17 2 18 -19 3z"/>
<path d="M2110 1302 c0 -18 57 -52 87 -52 26 1 26 2 -10 14 -21 8 -47 22 -58
32 -10 9 -19 12 -19 6z"/>
<path d="M1760 1283 l-25 -13 30 0 c17 0 36 4 43 9 24 15 -20 19 -48 4z"/>
<path d="M860 1276 c0 -7 8 -20 17 -27 12 -10 15 -11 9 -1 -6 10 -1 11 21 7
24 -5 25 -4 7 4 -12 5 -25 14 -29 20 -9 15 -25 14 -25 -3z"/>
<path d="M1840 1280 c0 -5 6 -10 13 -10 7 0 20 -9 30 -20 17 -20 37 -27 37
-12 0 7 -65 52 -75 52 -3 0 -5 -4 -5 -10z"/>
<path d="M2053 1275 c-7 -7 -22 -20 -35 -29 -12 -9 -19 -19 -15 -23 4 -4 24
10 45 30 20 20 32 37 27 37 -6 -1 -15 -7 -22 -15z"/>
<path d="M2440 1259 c-7 -11 -25 -25 -41 -31 -16 -5 -29 -14 -29 -20 0 -5 5
-6 12 -2 7 4 8 3 4 -5 -4 -6 -11 -9 -16 -6 -5 3 -11 1 -15 -5 -12 -19 35 -10
52 9 9 11 20 18 25 15 4 -3 12 6 18 20 6 16 15 24 24 20 8 -3 17 0 22 7 5 9 2
10 -9 6 -10 -3 -17 -2 -17 3 0 18 -19 11 -30 -11z"/>
<path d="M985 1253 l-30 -14 30 6 c31 7 41 12 34 19 -2 2 -17 -3 -34 -11z"/>
<path d="M2300 1251 c12 -23 30 -36 30 -22 0 10 -27 41 -36 41 -3 0 0 -9 6
-19z"/>
<path d="M1950 1250 c8 -5 22 -9 30 -9 10 0 8 3 -5 9 -27 12 -43 12 -25 0z"/>
<path d="M38 1243 c7 -3 16 -2 19 1 4 3 -2 6 -13 5 -11 0 -14 -3 -6 -6z"/>
<path d="M725 1241 c-3 -5 -1 -12 5 -16 5 -3 10 1 10 9 0 18 -6 21 -15 7z"/>
<path d="M1105 1241 c3 -5 1 -12 -5 -16 -5 -3 -10 -1 -10 6 0 7 -3 10 -6 6 -3
-3 -3 -11 1 -17 5 -8 11 -8 21 1 17 14 18 29 3 29 -5 0 -8 -4 -4 -9z"/>
<path d="M1470 1235 c8 -9 7 -15 -2 -18 -7 -3 -2 -5 12 -4 13 1 25 -3 25 -10
0 -6 3 -14 7 -18 12 -12 3 22 -10 38 -10 12 -10 16 0 20 7 2 1 4 -15 4 -21 0
-25 -2 -17 -12z"/>
<path d="M1768 1233 c6 -2 18 -2 25 0 6 3 1 5 -13 5 -14 0 -19 -2 -12 -5z"/>
<path d="M1818 1233 c7 -3 16 -2 19 1 4 3 -2 6 -13 5 -11 0 -14 -3 -6 -6z"/>
<path d="M2500 1224 c0 -8 5 -12 10 -9 6 3 10 10 10 16 0 5 -4 9 -10 9 -5 0
-10 -7 -10 -16z"/>
<path d="M825 1220 c3 -5 8 -10 11 -10 2 0 4 5 4 10 0 6 -5 10 -11 10 -5 0 -7
-4 -4 -10z"/>
<path d="M1840 1220 c-18 -12 -2 -12 25 0 13 6 15 9 5 9 -8 0 -22 -4 -30 -9z"/>
<path d="M878 1213 c-10 -2 -18 -9 -18 -14 0 -6 8 -5 20 1 11 6 20 13 20 15 0
3 -1 4 -2 4 -2 -1 -11 -3 -20 -6z"/>
<path d="M705 1200 c-3 -6 1 -7 9 -4 18 7 21 14 7 14 -6 0 -13 -4 -16 -10z"/>
<path d="M980 1193 c1 -22 26 -58 33 -46 6 11 -9 49 -22 58 -6 3 -11 -2 -11
-12z"/>
<path d="M1396 1202 c-3 -5 1 -9 9 -9 8 0 12 4 9 9 -3 4 -7 8 -9 8 -2 0 -6 -4
-9 -8z"/>
<path d="M1884 1195 c8 -8 23 -15 34 -15 11 0 25 -7 32 -15 7 -8 9 -15 5 -15
-5 0 -1 -8 8 -18 10 -10 15 -21 12 -24 -3 -3 1 -8 9 -11 37 -14 -15 77 -55 97
-43 21 -66 22 -45 1z"/>
<path d="M2520 1199 c0 -5 5 -7 10 -4 6 3 10 8 10 11 0 2 -4 4 -10 4 -5 0 -10
-5 -10 -11z"/>
<path d="M804 1192 c3 -6 2 -13 -4 -17 -6 -4 -7 -12 -3 -18 4 -7 8 -15 8 -20
0 -4 12 -15 28 -25 15 -10 24 -22 20 -27 -5 -4 -1 -6 9 -2 18 6 52 -25 41 -38
-5 -4 2 -2 15 4 12 6 22 14 22 17 0 3 -4 2 -10 -1 -5 -3 -10 -1 -10 4 0 6 -7
11 -15 11 -22 0 -98 79 -91 95 3 8 0 17 -6 21 -6 4 -8 3 -4 -4z"/>
<path d="M1323 1193 c4 -3 0 -15 -10 -25 -20 -22 -11 -24 11 -2 19 18 21 34 4
34 -6 0 -8 -3 -5 -7z"/>
<path d="M1444 1185 c3 -23 12 -26 13 -5 1 11 -2 20 -7 20 -4 0 -7 -7 -6 -15z"/>
<path d="M1978 1193 c6 -2 18 -2 25 0 6 3 1 5 -13 5 -14 0 -19 -2 -12 -5z"/>
<path d="M2238 1193 c-20 -5 -22 -20 -9 -56 10 -26 39 -43 53 -29 4 4 -2 8
-13 9 -26 2 -28 4 -32 34 -2 14 3 29 12 36 17 13 16 13 -11 6z"/>
<path d="M1231 1174 c0 -11 3 -14 6 -6 3 7 2 16 -1 19 -3 4 -6 -2 -5 -13z"/>
<path d="M2425 1170 c-3 -6 1 -7 10 -4 11 5 14 2 9 -12 -5 -15 -4 -16 4 -4 11
15 7 30 -8 30 -5 0 -12 -4 -15 -10z"/>
<path d="M1385 1160 c-3 -5 -1 -10 4 -10 6 0 11 5 11 10 0 6 -2 10 -4 10 -3 0
-8 -4 -11 -10z"/>
<path d="M1250 1150 c0 -6 7 -10 15 -10 8 0 15 2 15 4 0 2 -7 6 -15 10 -8 3
-15 1 -15 -4z"/>
<path d="M1640 1150 c-9 -6 -10 -10 -3 -10 6 0 15 5 18 10 8 12 4 12 -15 0z"/>
<path d="M2325 1141 c1 -9 9 -17 17 -19 21 -4 18 26 -3 31 -11 3 -16 -1 -14
-12z"/>
<path d="M2380 1156 c0 -2 7 -9 15 -16 9 -7 15 -8 15 -2 0 5 -7 12 -15 16 -8
3 -15 4 -15 2z"/>
<path d="M847 1139 c7 -7 15 -10 18 -7 3 3 -2 9 -12 12 -14 6 -15 5 -6 -5z"/>
<path d="M1203 1143 c9 -2 23 -2 30 0 6 3 -1 5 -18 5 -16 0 -22 -2 -12 -5z"/>
<path d="M1275 1121 c-24 -22 -111 -62 -119 -53 -13 12 -6 34 9 28 8 -3 15 -1
15 4 0 6 -10 10 -21 10 -17 0 -20 -5 -17 -25 4 -20 0 -26 -25 -35 -38 -13 -67
-13 -67 0 0 6 -11 10 -25 10 -14 0 -25 -5 -25 -11 0 -6 9 -8 20 -4 11 3 20 2
20 -4 0 -5 -12 -12 -27 -15 -16 -2 -3 -3 27 -1 60 4 70 6 115 24 75 29 105 45
126 67 27 29 22 32 -6 5z"/>
<path d="M887 1119 c7 -7 15 -10 18 -7 3 3 -2 9 -12 12 -14 6 -15 5 -6 -5z"/>
<path d="M965 1119 c-4 -6 -13 -8 -21 -5 -7 3 -16 1 -19 -4 -3 -5 4 -12 16
-15 22 -7 69 11 69 27 0 12 -38 10 -45 -3z"/>
<path d="M1043 1120 c-13 -5 -23 -12 -23 -15 0 -9 16 -5 36 10 22 16 19 18
-13 5z"/>
<path d="M1064 1106 c-18 -8 -35 -20 -39 -27 -6 -8 -4 -10 5 -4 8 5 18 1 27
-11 14 -19 14 -19 11 0 -2 10 3 21 11 24 8 2 11 0 7 -6 -3 -5 0 -12 8 -15 16
-6 26 1 26 17 0 6 -5 4 -10 -4 -9 -13 -10 -13 -11 0 -1 8 -1 21 0 28 2 14 4
15 -35 -2z"/>
<path d="M716 1084 c-4 -9 -4 -19 -1 -22 2 -3 7 3 11 12 4 9 4 19 1 22 -2 3
-7 -3 -11 -12z"/>
<path d="M84 1078 c-4 -7 -4 -10 1 -6 4 4 15 2 24 -5 14 -11 14 -10 2 6 -16
20 -18 21 -27 5z"/>
<path d="M746 1073 c-6 -14 -5 -15 5 -6 7 7 10 15 7 18 -3 3 -9 -2 -12 -12z"/>
<path d="M800 1079 c0 -5 5 -7 10 -4 6 3 10 8 10 11 0 2 -4 4 -10 4 -5 0 -10
-5 -10 -11z"/>
<path d="M2350 1069 c7 -11 14 -18 17 -15 8 8 -5 36 -17 36 -7 0 -7 -6 0 -21z"/>
<path d="M970 1060 c0 -18 -3 -21 -9 -11 -6 9 -11 10 -15 3 -4 -6 2 -16 13
-21 23 -13 37 11 21 37 -8 14 -9 13 -10 -8z"/>
<path d="M1800 1060 c0 -5 5 -10 11 -10 5 0 7 5 4 10 -3 6 -8 10 -11 10 -2 0
-4 -4 -4 -10z"/>
<path d="M525 1050 c-3 -5 -1 -10 4 -10 6 0 11 5 11 10 0 6 -2 10 -4 10 -3 0
-8 -4 -11 -10z"/>
<path d="M570 1049 c0 -5 11 -9 25 -9 14 0 25 2 25 4 0 2 -11 6 -25 8 -14 3
-25 1 -25 -3z"/>
<path d="M803 1041 c-13 -11 -23 -25 -23 -31 0 -7 9 -1 21 14 18 23 48 38 35
18 -3 -5 1 -9 9 -9 11 0 12 4 4 14 -15 17 -19 16 -46 -6z"/>
<path d="M2008 1034 c21 -28 32 -31 25 -5 -3 11 -13 21 -24 24 -18 5 -18 4 -1
-19z"/>
<path d="M1700 1041 c0 -10 19 -25 25 -20 1 2 -3 10 -11 17 -8 7 -14 8 -14 3z"/>
<path d="M875 1030 c3 -5 8 -10 11 -10 2 0 4 5 4 10 0 6 -5 10 -11 10 -5 0 -7
-4 -4 -10z"/>
<path d="M702 1000 c14 -21 28 -27 28 -10 0 6 -5 10 -11 10 -5 0 -7 5 -4 10 3
6 -1 10 -9 10 -14 0 -14 -3 -4 -20z"/>
<path d="M1770 1011 c0 -5 5 -13 10 -16 6 -3 10 -2 10 4 0 5 -4 13 -10 16 -5
3 -10 2 -10 -4z"/>
<path d="M2306 1012 c-2 -4 4 -9 15 -9 10 -1 19 2 19 8 0 11 -27 12 -34 1z"/>
<path d="M799 993 c-13 -16 -12 -17 4 -4 9 7 17 15 17 17 0 8 -8 3 -21 -13z"/>
<path d="M835 999 c-4 -6 -5 -12 -2 -15 2 -3 7 2 10 11 7 17 1 20 -8 4z"/>
<path d="M1892 990 c0 -14 2 -19 5 -12 2 6 2 18 0 25 -3 6 -5 1 -5 -13z"/>
<path d="M115 991 c-3 -5 -1 -12 5 -16 5 -3 10 1 10 9 0 18 -6 21 -15 7z"/>
<path d="M963 975 c-3 -9 -3 -18 -1 -21 3 -3 8 4 11 16 6 23 -1 27 -10 5z"/>
<path d="M875 970 c-3 -6 1 -7 9 -4 18 7 21 14 7 14 -6 0 -13 -4 -16 -10z"/>
<path d="M1005 970 c3 -5 8 -10 11 -10 2 0 4 5 4 10 0 6 -5 10 -11 10 -5 0 -7
-4 -4 -10z"/>
<path d="M2019 953 c4 -15 6 -34 4 -41 -3 -7 1 -11 8 -10 7 2 13 -3 14 -9 0
-7 3 -13 8 -13 4 0 12 0 19 0 6 0 2 9 -10 20 -21 20 -24 26 -26 59 -1 8 -6 16
-13 18 -9 3 -10 -4 -4 -24z"/>
<path d="M77 916 c-4 -10 -1 -13 8 -9 8 3 12 9 9 14 -7 12 -11 11 -17 -5z"/>
<path d="M2140 900 c-9 -6 -10 -10 -3 -10 6 0 15 5 18 10 8 12 4 12 -15 0z"/>
<path d="M1220 859 c0 -5 5 -7 10 -4 6 3 10 8 10 11 0 2 -4 4 -10 4 -5 0 -10
-5 -10 -11z"/>
<path d="M2021 854 c0 -11 3 -14 6 -6 3 7 2 16 -1 19 -3 4 -6 -2 -5 -13z"/>
<path d="M1750 840 c6 -11 13 -20 16 -20 2 0 0 9 -6 20 -6 11 -13 20 -16 20
-2 0 0 -9 6 -20z"/>
<path d="M1088 823 c6 -2 18 -2 25 0 6 3 1 5 -13 5 -14 0 -19 -2 -12 -5z"/>
<path d="M1033 813 c9 -2 23 -2 30 0 6 3 -1 5 -18 5 -16 0 -22 -2 -12 -5z"/>
<path d="M1170 810 c-13 -8 -12 -10 3 -10 9 0 17 5 17 10 0 12 -1 12 -20 0z"/>
<path d="M1973 805 c0 -8 4 -12 9 -9 5 3 6 10 3 15 -9 13 -12 11 -12 -6z"/>
<path d="M1083 785 c0 -8 4 -12 9 -9 5 3 6 10 3 15 -9 13 -12 11 -12 -6z"/>
<path d="M1030 766 c0 -2 7 -7 16 -10 8 -3 12 -2 9 4 -6 10 -25 14 -25 6z"/>
<path d="M1103 755 c0 -8 4 -15 9 -15 4 0 8 4 8 9 0 6 -4 12 -8 15 -5 3 -9 -1
-9 -9z"/>
<path d="M2240 750 c-9 -6 -10 -10 -3 -10 6 0 15 5 18 10 8 12 4 12 -15 0z"/>
<path d="M2260 710 c-9 -6 -10 -10 -3 -10 6 0 15 5 18 10 8 12 4 12 -15 0z"/>
<path d="M2951 680 c-13 -11 -29 -20 -36 -20 -7 0 -28 -19 -46 -42 -33 -43
-21 -39 34 11 24 22 31 24 47 13 11 -7 20 -8 20 -3 0 5 -6 12 -12 14 -9 4 -5
12 12 26 14 11 21 21 15 20 -5 0 -21 -9 -34 -19z"/>
<path d="M480 680 c0 -5 9 -10 19 -10 11 0 23 5 26 10 4 6 -5 10 -19 10 -14 0
-26 -4 -26 -10z"/>
<path d="M2636 673 c-6 -14 -5 -15 5 -6 7 7 10 15 7 18 -3 3 -9 -2 -12 -12z"/>
<path d="M560 670 c20 -13 33 -13 25 0 -3 6 -14 10 -23 10 -15 0 -15 -2 -2
-10z"/>
<path d="M1100 670 c0 -5 5 -10 11 -10 5 0 7 5 4 10 -3 6 -8 10 -11 10 -2 0
-4 -4 -4 -10z"/>
<path d="M2587 651 c-4 -17 -3 -21 5 -13 5 5 8 16 6 23 -3 8 -7 3 -11 -10z"/>
<path d="M1266 643 c-6 -14 -5 -15 5 -6 7 7 10 15 7 18 -3 3 -9 -2 -12 -12z"/>
<path d="M635 640 c3 -5 18 -10 32 -10 32 0 28 5 -10 14 -19 4 -26 3 -22 -4z"/>
<path d="M2498 643 c7 -3 16 -2 19 1 4 3 -2 6 -13 5 -11 0 -14 -3 -6 -6z"/>
<path d="M1105 630 c3 -5 11 -10 16 -10 6 0 7 5 4 10 -3 6 -11 10 -16 10 -6 0
-7 -4 -4 -10z"/>
<path d="M1205 630 c-3 -6 1 -7 9 -4 18 7 21 14 7 14 -6 0 -13 -4 -16 -10z"/>
<path d="M705 610 c3 -5 10 -10 16 -10 5 0 9 5 9 10 0 6 -7 10 -16 10 -8 0
-12 -4 -9 -10z"/>
<path d="M1150 609 c0 -5 -5 -7 -12 -3 -7 4 -8 3 -4 -5 6 -9 11 -9 22 0 17 14
18 19 4 19 -5 0 -10 -5 -10 -11z"/>
<path d="M746 595 c4 -8 10 -12 15 -9 14 8 10 24 -6 24 -9 0 -12 -6 -9 -15z"/>
<path d="M1537 603 c-4 -3 -7 -11 -7 -17 0 -6 5 -5 12 2 6 6 9 14 7 17 -3 3
-9 2 -12 -2z"/>
<path d="M2925 594 c9 -9 19 -13 23 -10 3 4 0 11 -8 16 -24 15 -33 11 -15 -6z"/>
<path d="M2965 600 c-3 -5 -1 -10 4 -10 6 0 11 5 11 10 0 6 -2 10 -4 10 -3 0
-8 -4 -11 -10z"/>
<path d="M790 596 c0 -8 61 -31 73 -28 5 1 27 -3 49 -9 22 -6 64 -14 92 -19
28 -5 60 -11 71 -14 11 -4 4 1 -15 10 -19 9 -53 17 -76 19 -22 1 -52 9 -65 16
-13 7 -40 13 -59 14 -19 1 -43 5 -52 9 -10 5 -18 5 -18 2z"/>
<path d="M1565 570 c3 -5 11 -10 16 -10 6 0 7 5 4 10 -3 6 -11 10 -16 10 -6 0
-7 -4 -4 -10z"/>
<path d="M106 554 c-9 -8 -16 -21 -16 -27 0 -7 5 -4 11 5 5 10 17 22 27 27 9
6 12 11 5 11 -6 0 -19 -7 -27 -16z"/>
<path d="M1699 553 c-13 -16 -12 -17 4 -4 16 13 21 21 13 21 -2 0 -10 -8 -17
-17z"/>
<path d="M1740 556 c0 -16 18 -31 27 -22 3 3 -2 12 -11 21 -14 14 -16 14 -16
1z"/>
<path d="M2879 561 c12 -8 51 -4 51 5 0 2 -15 4 -32 4 -23 0 -29 -3 -19 -9z"/>
<path d="M1433 553 c9 -2 23 -2 30 0 6 3 -1 5 -18 5 -16 0 -22 -2 -12 -5z"/>
<path d="M1835 550 c3 -5 8 -10 11 -10 2 0 4 5 4 10 0 6 -5 10 -11 10 -5 0 -7
-4 -4 -10z"/>
<path d="M2035 551 c-3 -5 0 -13 6 -17 7 -4 9 -3 5 4 -3 5 0 13 6 15 9 4 10 6
1 6 -6 1 -14 -3 -18 -8z"/>
<path d="M1789 533 c-13 -16 -12 -17 4 -4 16 13 21 21 13 21 -2 0 -10 -8 -17
-17z"/>
<path d="M1135 510 c26 -11 35 -12 35 -2 0 4 -12 8 -27 9 -24 1 -25 1 -8 -7z"/>
<path d="M2006 507 c3 -10 9 -15 12 -12 3 3 0 11 -7 18 -10 9 -11 8 -5 -6z"/>
<path d="M559 497 c14 -18 7 -52 -9 -42 -5 3 -10 1 -10 -5 0 -6 8 -10 18 -8
22 4 24 59 2 66 -13 5 -13 3 -1 -11z"/>
<path d="M1275 479 c11 -16 103 -59 127 -58 15 0 6 6 -24 16 -27 9 -45 20 -41
26 3 6 2 7 -4 4 -5 -3 -22 0 -37 8 -14 8 -24 10 -21 4z"/>
<path d="M2530 411 c-8 -4 -42 -13 -75 -20 -33 -7 -80 -19 -105 -26 -25 -8
-62 -16 -83 -18 -38 -4 -55 -13 -45 -22 6 -6 102 12 133 24 20 8 76 24 153 42
23 6 42 15 42 20 0 11 -1 11 -20 0z"/>
<path d="M2619 399 c-11 -7 -9 -9 9 -9 13 0 22 -6 22 -15 0 -8 -6 -15 -14 -15
-7 0 -27 -7 -42 -15 -16 -8 -37 -15 -47 -15 -10 0 -26 -7 -35 -16 -15 -15 -13
-16 19 -9 19 4 40 12 47 17 6 6 12 7 12 2 0 -5 5 -2 10 6 5 8 17 15 26 15 9 0
23 9 30 20 12 18 11 22 -5 32 -11 7 -23 8 -32 2z"/>
<path d="M1820 390 c-9 -6 -10 -10 -3 -10 6 0 15 5 18 10 8 12 4 12 -15 0z"/>
<path d="M673 373 c-8 -21 32 -55 55 -45 13 5 11 8 -10 10 -25 3 -34 16 -29
45 2 14 -10 7 -16 -10z"/>
<path d="M891 377 c2 -1 12 -9 22 -16 15 -12 17 -12 11 3 -3 9 -13 16 -22 16
-8 0 -13 -1 -11 -3z"/>
<path d="M585 360 c-3 -5 -1 -10 4 -10 6 0 11 5 11 10 0 6 -2 10 -4 10 -3 0
-8 -4 -11 -10z"/>
<path d="M975 360 c-3 -6 1 -7 9 -4 18 7 21 14 7 14 -6 0 -13 -4 -16 -10z"/>
<path d="M1679 349 c14 -5 32 -8 40 -7 9 1 23 -1 31 -6 12 -7 12 -6 3 4 -6 7
-31 14 -55 15 -35 3 -39 1 -19 -6z"/>
<path d="M2800 340 c0 -6 -4 -9 -9 -6 -4 3 -6 -6 -3 -19 2 -14 8 -22 13 -19 5
3 6 10 3 16 -4 6 -1 14 6 18 9 5 9 9 1 14 -6 4 -11 2 -11 -4z"/>
<path d="M528 328 c-8 -19 15 -42 34 -35 9 4 7 6 -4 6 -9 1 -18 11 -20 24 -3
18 -4 19 -10 5z"/>
<path d="M1785 330 c-3 -5 -1 -10 4 -10 6 0 11 5 11 10 0 6 -2 10 -4 10 -3 0
-8 -4 -11 -10z"/>
<path d="M2080 330 c0 -5 5 -10 11 -10 5 0 7 5 4 10 -3 6 -8 10 -11 10 -2 0
-4 -4 -4 -10z"/>
<path d="M2130 319 c-24 -7 -24 -7 5 -7 17 0 41 4 55 8 24 8 24 8 -5 7 -16 0
-41 -4 -55 -8z"/>
<path d="M2340 316 c-9 -12 -8 -15 8 -13 12 0 18 6 15 14 -6 16 -8 16 -23 -1z"/>
<path d="M2840 317 c0 -9 -4 -17 -9 -17 -5 0 -11 -9 -14 -19 -3 -14 -1 -18 9
-14 7 3 13 8 12 11 -1 4 2 15 7 25 4 10 5 21 1 24 -3 4 -6 -1 -6 -10z"/>
<path d="M826 308 c3 -4 9 -8 15 -8 5 0 9 4 9 8 0 5 -7 9 -15 9 -8 0 -12 -4
-9 -9z"/>
<path d="M2290 310 c0 -5 7 -10 16 -10 8 0 12 5 9 10 -3 6 -10 10 -16 10 -5 0
-9 -4 -9 -10z"/>
<path d="M783 296 c-13 -7 -20 -16 -16 -19 11 -12 22 -8 33 13 6 11 9 20 8 19
-2 -1 -13 -7 -25 -13z"/>
<path d="M1650 301 c0 -6 4 -13 10 -16 6 -3 7 1 4 9 -7 18 -14 21 -14 7z"/>
<path d="M2245 291 c-6 -11 9 -23 19 -14 9 9 7 23 -3 23 -6 0 -12 -4 -16 -9z"/>
<path d="M2385 288 c-10 -6 -37 -12 -59 -13 -22 -1 -42 -7 -44 -13 -2 -7 -9
-12 -16 -12 -9 0 -11 -9 -8 -27 l6 -28 6 25 c4 19 15 26 45 32 52 11 95 28 95
39 0 11 0 11 -25 -3z"/>
<path d="M2555 288 c-59 -21 -60 -22 -31 -26 20 -2 35 3 50 17 11 12 18 21 16
20 -3 -1 -18 -6 -35 -11z"/>
<path d="M881 257 c15 -12 25 -15 27 -8 2 6 9 8 14 5 7 -4 8 -2 4 5 -4 6 -12
9 -17 6 -5 -4 -9 -2 -9 2 0 5 -9 9 -21 9 -20 0 -20 -1 2 -19z"/>
<path d="M1932 260 c-7 -11 -8 -20 -3 -20 9 0 24 30 18 36 -1 2 -8 -6 -15 -16z"/>
<path d="M482 250 c0 -14 2 -19 5 -12 2 6 2 18 0 25 -3 6 -5 1 -5 -13z"/>
<path d="M730 240 c0 -5 5 -10 11 -10 5 0 7 5 4 10 -3 6 -8 10 -11 10 -2 0 -4
-4 -4 -10z"/>
<path d="M2376 241 c-4 -5 -24 -12 -46 -16 -25 -4 -40 -12 -40 -21 0 -12 4
-13 23 -2 21 12 41 18 63 20 6 1 11 7 11 15 0 15 -4 17 -11 4z"/>
<path d="M2467 224 c-10 -13 -13 -24 -8 -24 10 0 36 39 29 45 -2 2 -11 -8 -21
-21z"/>
<path d="M660 230 c0 -5 4 -10 9 -10 6 0 13 5 16 10 3 6 -1 10 -9 10 -9 0 -16
-4 -16 -10z"/>
<path d="M1885 229 c-4 -6 -5 -12 -2 -15 2 -3 7 2 10 11 7 17 1 20 -8 4z"/>
<path d="M1026 203 c-6 -14 -5 -15 5 -6 7 7 10 15 7 18 -3 3 -9 -2 -12 -12z"/>
<path d="M1528 203 c7 -3 16 -2 19 1 4 3 -2 6 -13 5 -11 0 -14 -3 -6 -6z"/>
<path d="M2141 192 c-6 -12 -11 -27 -11 -34 0 -7 7 0 15 16 9 16 13 31 11 33
-2 3 -9 -4 -15 -15z"/>
<path d="M650 188 c0 -6 11 -21 25 -34 14 -13 25 -19 25 -14 0 5 -11 20 -25
34 -14 14 -25 20 -25 14z"/>
<path d="M865 180 c-10 -11 -14 -20 -8 -20 5 0 18 9 28 20 10 11 14 20 8 20
-5 0 -18 -9 -28 -20z"/>
<path d="M715 170 c3 -5 8 -10 11 -10 2 0 4 5 4 10 0 6 -5 10 -11 10 -5 0 -7
-4 -4 -10z"/>
<path d="M2420 160 c-8 -5 -12 -12 -9 -15 4 -3 12 1 19 10 14 17 11 19 -10 5z"/>
<path d="M2170 151 c0 -5 5 -13 10 -16 6 -3 10 -2 10 4 0 5 -4 13 -10 16 -5 3
-10 2 -10 -4z"/>
<path d="M786 135 c-11 -8 -18 -17 -15 -19 2 -3 15 4 29 14 14 11 21 20 15 19
-5 0 -19 -6 -29 -14z"/>
<path d="M854 130 c-23 -10 -44 -26 -48 -35 -9 -26 0 -30 13 -7 6 11 27 26 46
32 19 6 35 16 35 21 0 5 -1 9 -2 8 -2 0 -21 -9 -44 -19z"/>
<path d="M1995 139 c-4 -6 -13 -8 -21 -5 -15 6 -18 -2 -6 -21 5 -8 14 -4 31
13 13 13 18 24 13 24 -6 0 -14 -5 -17 -11z"/>
<path d="M455 130 c3 -5 10 -10 16 -10 5 0 9 5 9 10 0 6 -7 10 -16 10 -8 0
-12 -4 -9 -10z"/>
<path d="M950 130 c18 -12 73 -13 66 -2 -3 5 -22 9 -43 10 -28 1 -34 -1 -23
-8z"/>
<path d="M1160 131 c0 -6 4 -13 10 -16 6 -3 7 1 4 9 -7 18 -14 21 -14 7z"/>
<path d="M225 119 c-16 -6 -14 -8 13 -8 33 -1 41 4 20 12 -7 2 -22 1 -33 -4z"/>
<path d="M531 114 c0 -11 3 -14 6 -6 3 7 2 16 -1 19 -3 4 -6 -2 -5 -13z"/>
<path d="M912 108 c2 -25 43 -57 56 -43 3 3 1 5 -5 5 -6 0 -20 15 -32 33 l-21
32 2 -27z"/>
<path d="M1670 120 c-8 -5 -10 -10 -5 -10 6 0 17 5 25 10 8 5 11 10 5 10 -5 0
-17 -5 -25 -10z"/>
<path d="M2020 123 c1 -13 34 -49 53 -56 24 -9 21 -2 -13 33 -30 30 -40 36
-40 23z"/>
<path d="M348 113 c-20 -5 -24 -23 -5 -23 6 0 21 7 31 15 20 15 11 18 -26 8z"/>
<path d="M1057 105 c-4 -8 -12 -15 -19 -15 -7 0 -24 -9 -38 -20 -20 -16 -21
-19 -5 -14 11 4 26 11 33 17 6 5 12 6 12 1 0 -5 7 2 16 14 9 13 14 25 11 28
-2 3 -7 -2 -10 -11z"/>
<path d="M28 103 c6 -2 18 -2 25 0 6 3 1 5 -13 5 -14 0 -19 -2 -12 -5z"/>
<path d="M168 103 c-10 -2 -18 -9 -18 -14 0 -6 10 -5 23 2 37 20 36 23 -5 12z"/>
<path d="M283 96 c-32 -12 -95 -56 -79 -56 4 0 19 9 33 20 29 23 80 29 53 7
-8 -7 -26 -26 -40 -42 l-25 -30 29 25 c52 45 66 60 55 60 -8 0 -8 5 1 15 7 8
11 14 9 14 -2 -1 -19 -7 -36 -13z"/>
<path d="M1905 84 l-30 -26 33 16 c17 9 32 21 32 26 0 13 -1 13 -35 -16z"/>
<path d="M2489 93 c-13 -16 -12 -17 4 -4 16 13 21 21 13 21 -2 0 -10 -8 -17
-17z"/>
<path d="M450 76 c0 -2 7 -7 16 -10 8 -3 12 -2 9 4 -6 10 -25 14 -25 6z"/>
<path d="M2008 63 c-3 -13 -2 -26 4 -29 14 -9 16 -2 8 26 -6 25 -6 25 -12 3z"/>
<path d="M2505 70 c-3 -6 1 -7 9 -4 18 7 21 14 7 14 -6 0 -13 -4 -16 -10z"/>
<path d="M416 55 c10 -8 23 -15 28 -15 6 0 1 7 -10 15 -10 8 -23 15 -28 15 -6
0 -1 -7 10 -15z"/>
<path d="M360 50 c0 -6 7 -10 15 -10 8 0 15 2 15 4 0 2 -7 6 -15 10 -8 3 -15
1 -15 -4z"/>
<path d="M2329 43 c-13 -16 -12 -17 4 -4 16 13 21 21 13 21 -2 0 -10 -8 -17
-17z"/>
<path d="M668 43 c7 -3 16 -2 19 1 4 3 -2 6 -13 5 -11 0 -14 -3 -6 -6z"/>
<path d="M1910 40 c0 -5 7 -10 15 -10 8 0 15 5 15 10 0 6 -7 10 -15 10 -8 0
-15 -4 -15 -10z"/>
<path d="M293 13 c9 -2 23 -2 30 0 6 3 -1 5 -18 5 -16 0 -22 -2 -12 -5z"/>
</g>
</svg>
